<svg width="3607" height="1218" viewBox="0 0 3607 1218" fill="none" xmlns="http://www.w3.org/2000/svg">
<path d="M436.462 311.05L264.279 254.603L466.876 138.955L436.462 311.05ZM479.368 309.606L511.345 128.668L751.172 235.783L479.368 309.606ZM505.787 345.952L781.438 271.084L715.533 472.689L505.787 345.952ZM714.753 537.799L782.627 783.219L493.897 683.942L714.753 537.799ZM688.012 505.131L468.466 650.407L473.286 375.385L688.012 505.131ZM227.596 286.777L405.373 345.058L173.402 500L227.596 286.777ZM174.877 323.698L127.45 510.296L46.7804 442.706L174.877 323.698ZM140.59 982.817L138.698 979.376L142.955 984.487L140.59 982.817ZM796.804 210.165L593.86 119.523H810.334L796.804 210.165ZM837.216 223.922L850.273 136.448L1013.69 258.99L837.216 223.922ZM863.408 271.947L1073.87 313.769L1025.65 487.162L863.408 271.947ZM820.947 285.394L988.993 508.312L755.394 485.923L820.947 285.394ZM994.31 551.014L822.63 770.299L755.659 528.141L994.31 551.014ZM578.032 1012.49L795.705 854.847L811.582 1042.19L578.032 1012.49ZM558.976 1052.4L778.09 1080.27L625.767 1186.81L558.976 1052.4ZM511.475 1051.19L576.093 1181.23L333.894 1096.86L511.475 1051.19ZM464.383 1019.94L277.343 1068.03L242.579 904.505L464.383 1019.94ZM183.847 833.309L44.5542 785.964L132.275 609.66L183.847 833.309ZM225.996 829.174L169.67 584.909L406.029 694.237L225.996 829.174ZM433.42 726.195L492.273 987.104L252.087 862.106L433.42 726.195ZM536.192 990.931L475.538 722.043L768.423 822.748L536.192 990.931ZM431.228 378.296L426.338 657.356L182.379 544.512L431.228 378.296ZM36.052 488.511L113.398 553.316L36.052 708.767V488.511ZM223.165 1015.16L78.9453 842.013L194.721 881.365L223.165 1015.16ZM406.018 1170.29L395.302 1162.72L423.217 1172.45L406.018 1170.29ZM1104 362.182L1186.93 564.073L1060.01 520.351L1104 362.182ZM1062.18 565.521L1195.13 611.323L1108.26 798.12L1062.18 565.521ZM1022.78 582.778L1073.63 839.453L851.701 801.299L1022.78 582.778ZM836.711 841.338L1048.88 877.814L852.408 1026.56L836.711 841.338ZM974.664 1093.22L878.544 1059.45L1047.3 931.687L974.664 1093.22ZM1114.8 883.974L1155.5 876.456L1071.51 980.252L1114.8 883.974ZM1195.56 710.002L1187.71 827.796L1136.37 837.281L1195.56 710.002ZM837.907 1089.69L914.841 1116.72L727.553 1166.87L837.907 1089.69ZM259.336 184.918L340.63 162.659L249.642 214.597L259.336 184.918Z" stroke="url(#paint0_linear_1251_15)" stroke-width="42"/>
<path d="M2058.87 287.2C2065.56 287.2 2069.39 291.98 2069.39 295.804V1043.4C2069.39 1047.22 2065.56 1052 2058.87 1052H1932.68C1930.77 1052 1925.03 1051.04 1924.08 1049.13L1572.27 545.32V868.448H1426V295.804C1426 291.98 1430.78 287.2 1435.56 287.2H1562.71C1564.62 287.2 1570.36 288.156 1571.31 290.068L1924.08 793.88V295.804C1924.08 291.98 1928.86 287.2 1935.55 287.2H2058.87Z" fill="white"/>
<path d="M2277.6 412C2433.6 412 2652 448 2652 732C2652 1005.6 2436.8 1052 2277.6 1052H2172.8C2168 1052 2164 1048 2164 1044.8V793.6H2286.4V934.4C2364 937.6 2528.8 929.6 2528.8 732C2528.8 580 2425.6 521.6 2286.4 528.8V670.4H2164V419.2C2164 416 2168 412 2172.8 412H2277.6Z" fill="white"/>
<path d="M3043 932.8V1052H2747.8C2743 1052 2739 1048 2739 1044.8V419.2C2739 416 2743 412 2747.8 412H3043V528H2861.4V672.8H3112.6C3117.4 672.8 3121.4 676 3121.4 680V781.6C3121.4 784.8 3117.4 788.8 3112.6 788.8H2861.4V932.8H3043Z" fill="white"/>
<path d="M3335 644H3456.6V1044.8C3456.6 1048 3452.6 1052 3447 1052H3343.8C3338.2 1052 3335 1048 3335 1044.8V644ZM3211.8 521.6C3207 521.6 3203 518.4 3203 514.4V419.2C3203 416 3207 412 3211.8 412H3579C3584.6 412 3587.8 416 3587.8 419.2V514.4C3587.8 518.4 3584.6 521.6 3579 521.6H3211.8Z" fill="white"/>
<defs>
<linearGradient id="paint0_linear_1251_15" x1="183.361" y1="208.614" x2="985.535" y2="1107.59" gradientUnits="userSpaceOnUse">
<stop offset="0.07" stop-color="#8131C5"/>
<stop offset="0.455" stop-color="#AA4F85"/>
<stop offset="0.93" stop-color="#FF8C00"/>
</linearGradient>
</defs>
</svg>
